<svg xmlns="http://www.w3.org/2000/svg" width="128" height="128" viewBox="0 0 256 256"><g fill="none" stroke-miterlimit="10" font-family="none" font-size="none" font-weight="none" style="mix-blend-mode:normal" text-anchor="none" transform="scale(.53333)"><ellipse cx="240" cy="267" fill="#e8f3ff" rx="232" ry="168"/><path fill="#d1e7ff" d="M472 267c0 87.97-125.97 168-232 168-29.759 0-61.086-6.302-90.756-17.316-8.249-3.062-6.152-15.227 2.644-15.488C284.182 398.27 391.369 297.7 348.131 137.964c-1.807-6.676 5.064-12.367 11.265-9.305C422.477 159.805 472 211.838 472 267z"/><circle cx="240" cy="267" r="121" fill="#b9dcff"/><circle cx="240" cy="267" r="39" fill="#a2d0ff"/><path fill="#d1e7ff" d="M244.514 178.21c-45.336 10.706-82.761 48.337-93.306 93.731-4.346 18.707-31.916 16.062-32.196-3.142-.985-67.614 54.303-123.328 121.961-122.795 19.421.153 22.443 27.742 3.541 32.206z"/><path fill="#4260d8" d="M400.316 143.436C352.93 110.603 292.998 91 240 91c-56.764 0-121.994 22.855-170.235 59.646a8.001 8.001 0 0 0 9.703 12.722C125.058 128.599 186.57 107 240 107c49.866 0 106.392 18.538 151.204 49.588C437.467 188.642 464 228.886 464 267c0 38.114-26.533 78.358-72.796 110.412C346.392 408.462 289.866 427 240 427c-49.866 0-106.392-18.538-151.204-49.588C42.533 345.358 16 305.114 16 267c0-25.342 11.644-51.742 33.671-76.345a8 8 0 0 0-11.92-10.673C13.054 207.567 0 237.657 0 267c0 43.439 29.043 88.477 79.684 123.564C127.07 423.397 187.002 443 240 443c52.998 0 112.93-19.603 160.316-52.436C450.957 355.477 480 310.439 480 267c0-43.439-29.043-88.477-79.684-123.564zM434.625 114.114c3.142 2.186 4.569 3.655 7.705 3.655 7.756 0 10.971-9.978 4.672-14.5a265.92 265.92 0 0 0-3.238-2.289 8 8 0 0 0-9.139 13.134z"/><path fill="#4260d8" d="M37.67 117.769a7.963 7.963 0 0 0 4.656-1.5C96.733 77.243 172.478 53 240 53c50.304 0 107.076 13.926 155.76 38.208a8 8 0 0 0 7.14-14.318C352.074 51.539 292.699 37 240 37c-70.696 0-150.014 25.392-207 66.268-6.305 4.522-3.085 14.501 4.67 14.501zM342.936 220.309a8 8 0 1 0 14.567-6.619C336.61 167.71 290.488 138 240 138c-71.131 0-129 57.869-129 129s57.869 129 129 129c67.164 0 122.632-51.421 128.491-117.464a8 8 0 0 0-7.262-8.676 7.99 7.99 0 0 0-8.676 7.262C347.352 335.772 298.964 380 240 380c-62.309 0-113-50.691-113-113s50.691-113 113-113c44.229 0 84.633 26.028 102.936 66.309z"/><path fill="#4260d8" d="M240 298c-17.094 0-31-13.907-31-31a8 8 0 0 0-16 0c0 25.916 21.084 47 47 47s47-21.084 47-47-21.084-47-47-47a8 8 0 0 0 0 16c17.094 0 31 13.907 31 31s-13.906 31-31 31z"/></g></svg>